<svg id="Layer_1" data-name="Layer 1" xmlns="http://www.w3.org/2000/svg" viewBox="0 0 442.26 115.99"><defs><style>.cls-1{fill:#fff;}.cls-2{fill:#ed1c24;}</style></defs><path class="cls-1" d="M76.51,113.05h35c42,0,55.73,28.68,55.73,56.87,0,28.51-14.42,56.54-56.38,56.54H76.51Zm34,89.59c27.54,0,33.05-20.41,33.05-33.7,0-13-5.19-32.07-32.4-32.07H100.32v65.77Z" transform="translate(-76.51 -112.08)"/><path class="cls-1" d="M219.88,143.83a42,42,0,0,1,42,41.64,46.67,46.67,0,0,1-.33,4.86H202.06c1.46,9.07,8.1,15.55,17.82,15.55,7.13,0,13.12-3.08,16-8.42l22.52,5.34a41.67,41.67,0,0,1-38.56,25.28c-22.68,0-41.15-18.8-41.15-42.12S197.2,143.83,219.88,143.83Zm-16.69,32.89h34a18.06,18.06,0,0,0-17.33-12.15C211.78,164.57,205.79,169.43,203.19,176.72Z" transform="translate(-76.51 -112.08)"/><path class="cls-1" d="M270.91,145.45h9.72V131.2c0-10.86,7.13-18.15,18-18.15h38.72v-.16H361V226.46H337.33V136.54H309.14c-4.37,0-4.86,2.43-4.86,5.84v3.07H323.4v22H304.28v59H280.63v-59h-9.72Z" transform="translate(-76.51 -112.08)"/><path class="cls-1" d="M380.58,125.69a13.61,13.61,0,0,1,27.22,0,13.61,13.61,0,0,1-27.22,0Zm24.79,19.76v81H381.71v-81Z" transform="translate(-76.51 -112.08)"/><path class="cls-2" d="M443.11,113.05l25.27,38.88,25.28-38.88h25.11l-36.62,56.71,36.62,56.7H493.66l-25.28-38.89-25.27,38.89H418l36.61-56.7L418,113.05Z" transform="translate(-76.51 -112.08)"/></svg>